<svg width="512" height="512" viewBox="0 0 512 512" fill="none" xmlns="http://www.w3.org/2000/svg">
<rect width="512" height="512" fill="white"/>
<path d="M299.368 187.027L371.565 277.737L190.886 453.972L85.9592 325.794L299.368 187.027Z" fill="#D58A9F"/>
<path d="M153.209 369.201L164.945 253.863L417.342 254.041L402.837 419.053L153.209 369.201Z" fill="#950C2A"/>
<path fill-rule="evenodd" clip-rule="evenodd" d="M305.796 325.536L159.288 293.687L160.641 287.462L307.149 319.312L305.796 325.536Z" fill="white"/>
<path d="M179.52 203.58L257.22 117.536L460.6 267.003L351.281 391.457L179.52 203.58Z" fill="#F0932C"/>
<path fill-rule="evenodd" clip-rule="evenodd" d="M363.126 293.686L267.577 210.878L271.749 206.064L367.297 288.873L363.126 293.686Z" fill="white"/>
<path d="M121.069 322.351L51 229.988L235.727 58L337.646 188.583L121.069 322.351Z" fill="#300729"/>
<path fill-rule="evenodd" clip-rule="evenodd" d="M235.727 179.028L82.8494 274.577L79.4733 269.175L232.351 173.627L235.727 179.028Z" fill="white"/>
</svg>
