<svg width="512" height="512" viewBox="0 0 512 512" fill="none" xmlns="http://www.w3.org/2000/svg">
<rect width="512" height="512" fill="black"/>
<path d="M298.235 188.862L368.886 277.629L192.076 450.091L89.396 324.657L298.235 188.862Z" fill="#D58A9F"/>
<path fill-rule="evenodd" clip-rule="evenodd" d="M191.818 454.696L84.781 323.94L298.91 184.705L373.079 277.893L191.818 454.696ZM364.692 277.366L297.559 193.019L94.0106 325.374L192.333 445.485L364.692 277.366Z" fill="white"/>
<path d="M155.205 367.135L166.69 254.267L413.682 254.441L399.487 415.92L155.205 367.135Z" fill="#950C2A"/>
<path fill-rule="evenodd" clip-rule="evenodd" d="M417.086 251.327L402.29 419.657L151.819 369.637L163.877 251.148L417.086 251.327ZM169.508 257.385L158.594 364.633L396.689 412.182L410.281 257.556L169.508 257.385Z" fill="white"/>
<path fill-rule="evenodd" clip-rule="evenodd" d="M304.525 324.405L161.154 293.238L162.479 287.146L305.849 318.314L304.525 324.405Z" fill="white"/>
<path d="M180.954 205.06L256.99 120.859L456.015 267.125L349.037 388.914L180.954 205.06Z" fill="#F0932C"/>
<path fill-rule="evenodd" clip-rule="evenodd" d="M460.6 266.627L349.083 393.584L176.743 205.073L256.564 116.679L460.6 266.627ZM257.414 125.039L185.165 205.047L348.99 384.244L451.429 267.623L257.414 125.039Z" fill="white"/>
<path fill-rule="evenodd" clip-rule="evenodd" d="M360.629 293.238L267.126 212.202L271.209 207.492L364.711 288.527L360.629 293.238Z" fill="white"/>
<path d="M123.754 321.288L55.1851 230.903L235.957 62.5981L335.693 190.385L123.754 321.288Z" fill="#300729"/>
<path fill-rule="evenodd" clip-rule="evenodd" d="M236.323 58L340.291 191.209L122.983 325.428L51 230.542L236.323 58ZM59.3721 231.264L124.526 317.149L331.097 189.561L235.593 67.1963L59.3721 231.264Z" fill="white"/>
<path fill-rule="evenodd" clip-rule="evenodd" d="M235.958 181.035L90.2754 272L86.4259 266.926L232.654 175.749L235.958 181.035Z" fill="white"/>
</svg>
